<?xml version="1.0" encoding="utf-8"?>
<!-- Generator: Adobe Illustrator 19.1.0, SVG Export Plug-In . SVG Version: 6.00 Build 0)  -->
<!DOCTYPE svg PUBLIC "-//W3C//DTD SVG 1.1//EN" "http://www.w3.org/Graphics/SVG/1.1/DTD/svg11.dtd">
<svg version="1.1" id="Layer_1" xmlns="http://www.w3.org/2000/svg" xmlns:xlink="http://www.w3.org/1999/xlink" x="0px" y="0px"
	 viewBox="-256 440 512 145" style="enable-background:new -256 440 512 145;" xml:space="preserve">
<style type="text/css">
	.st0{fill:#00B3DC;}
	.st1{fill:#0B9FC4;}
	.st2{fill:#059EC3;}
</style>
<g id="tint_1_">
	<g>
		<g>
			<g>
				<path class="st0" d="M-252.6,537.9c0,26.2,22.8,41.4,46.3,42.6c22-1.2,46.3-16.7,46.3-42.9c0-35.7-35-56.2-46.3-93.8
					C-218,481.4-252.6,502.2-252.6,537.9z"/>
			</g>
		</g>
		<g>
			<path class="st1" d="M-252.5,537.4c0,26.9,22.8,41.7,46.2,43c22-1.2,47.4-17.6,46.2-43.9C-186.6,584-228.4,583.9-252.5,537.4z"/>
		</g>
	</g>
</g>
<g>
	<path class="st2" d="M-141.6,446.6c-0.3-1.1,0.3-2,1.5-2h7.5c0.7,0,1.3,0.6,1.5,1.1l8.5,32.5h0.3l12.9-33.5
		c0.2-0.5,0.6-0.9,1.4-0.9h1.5c0.8,0,1.2,0.4,1.4,0.9l13,33.5h0.3l8.3-32.5c0.2-0.6,0.8-1.1,1.5-1.1h7.5c1.1,0,1.8,0.8,1.5,2
		l-15.4,54.7c-0.2,0.7-0.8,1.1-1.5,1.1h-1.3c-0.7,0-1.2-0.4-1.4-0.9l-14.6-36.9h-0.4l-14.4,36.9c-0.2,0.5-0.6,0.9-1.4,0.9h-1.3
		c-0.7,0-1.3-0.5-1.5-1.1L-141.6,446.6z"/>
	<path class="st2" d="M-77.3,499.5l25.3-54.8c0.2-0.5,0.7-0.9,1.4-0.9h0.8c0.8,0,1.1,0.4,1.4,0.9l25.1,54.8c0.5,1.1-0.2,2.1-1.4,2.1
		h-7.1c-1.2,0-1.8-0.5-2.4-1.6l-4-8.8h-24.3l-4,8.8c-0.3,0.8-1.1,1.6-2.4,1.6H-76C-77.1,501.6-77.7,500.5-77.3,499.5z M-42.1,482.1
		l-8.1-17.9h-0.2l-8,17.9H-42.1z"/>
	<path class="st2" d="M-13.3,454.4h-12.5c-0.9,0-1.5-0.7-1.5-1.5v-6.7c0-0.8,0.7-1.5,1.5-1.5H9.8c0.9,0,1.5,0.7,1.5,1.5v6.7
		c0,0.8-0.7,1.5-1.5,1.5H-2.7V500c0,0.8-0.7,1.5-1.5,1.5h-7.6c-0.8,0-1.5-0.7-1.5-1.5L-13.3,454.4L-13.3,454.4z"/>
	<path class="st2" d="M19.9,446.2c0-0.8,0.7-1.5,1.5-1.5h33.1c0.9,0,1.5,0.7,1.5,1.5v6.7c0,0.8-0.7,1.5-1.5,1.5H30.4v13.3h20.1
		c0.8,0,1.5,0.7,1.5,1.5v6.8c0,0.9-0.7,1.5-1.5,1.5H30.4v14.2h24.1c0.9,0,1.5,0.7,1.5,1.5v6.8c0,0.8-0.7,1.5-1.5,1.5H21.4
		c-0.9,0-1.5-0.7-1.5-1.5V446.2z"/>
	<path class="st2" d="M65.7,446.2c0-0.8,0.7-1.5,1.5-1.5h23.3c9.8,0,17.7,7.8,17.7,17.5c0,7.5-5,13.6-12,16.4l11.1,20.7
		c0.6,1.1,0,2.4-1.4,2.4h-8.5c-0.7,0-1.1-0.4-1.3-0.7l-10.8-21.6h-9V500c0,0.8-0.7,1.5-1.5,1.5h-7.5c-0.9,0-1.5-0.7-1.5-1.5v-53.8
		H65.7z M89.6,470.6c4.3,0,8.1-3.7,8.1-8.3c0-4.3-3.7-7.9-8.1-7.9H76.3v16.2H89.6z"/>
</g>
<path class="st2" d="M-134.5,526.7c0-0.8,0.7-1.5,1.5-1.5h23.3c9.8,0,17.7,7.8,17.7,17.5c0,7.5-5,13.6-12,16.4l11.2,20.7
	c0.6,1.1,0,2.4-1.4,2.4h-8.5c-0.7,0-1.1-0.4-1.3-0.7l-10.8-21.6h-9v20.8c0,0.8-0.7,1.5-1.5,1.5h-7.5c-0.9,0-1.5-0.7-1.5-1.5v-54
	H-134.5z M-110.6,551.1c4.3,0,8.1-3.7,8.1-8.3c0-4.3-3.7-7.9-8.1-7.9h-13.3v16.2C-123.9,551.1-110.6,551.1-110.6,551.1z"/>
<path class="st2" d="M-83.4,526.7c0-0.8,0.7-1.5,1.5-1.5h33.1c0.9,0,1.5,0.7,1.5,1.5v6.7c0,0.8-0.7,1.5-1.5,1.5h-24.1v13.3h20.1
	c0.8,0,1.5,0.7,1.5,1.5v6.8c0,0.9-0.7,1.5-1.5,1.5h-20.1v14.2h24.1c0.9,0,1.5,0.7,1.5,1.5v6.7c0,0.8-0.7,1.5-1.5,1.5h-33.1
	c-0.9,0-1.5-0.7-1.5-1.5L-83.4,526.7L-83.4,526.7z"/>
<path class="st2" d="M-38.6,526.7c0-0.8,0.7-1.5,1.5-1.5H-18c10,0,18.2,8.1,18.2,18c0,10.1-8.2,18.3-18.2,18.3h-10.2v19.1
	c0,0.8-0.7,1.5-1.5,1.5h-7.4c-0.9,0-1.5-0.7-1.5-1.5V526.7z M-18.6,551.5c4.6,0,8.4-3.7,8.4-8.5c0-4.5-3.8-7.9-8.4-7.9H-28v16.4
	H-18.6z"/>
<path class="st2" d="M35.7,524.3c16.3,0,29.3,13.1,29.3,29.4s-13,29.2-29.3,29.2S6.5,570,6.5,553.7C6.5,537.5,19.5,524.3,35.7,524.3
	z M35.7,572.4c10.3,0,18.7-8.4,18.7-18.6c0-10.3-8.5-18.8-18.7-18.8c-10.3,0-18.6,8.5-18.6,18.8C17.1,564,25.5,572.4,35.7,572.4z"/>
<path class="st2" d="M72.7,526.7c0-0.8,0.7-1.5,1.5-1.5h23.3c9.8,0,17.7,7.8,17.7,17.5c0,7.5-5,13.6-12,16.4l11.1,20.7
	c0.6,1.1,0,2.4-1.4,2.4h-8.5c-0.7,0-1.1-0.4-1.3-0.7l-10.8-21.6h-9v20.8c0,0.8-0.7,1.5-1.5,1.5h-7.5c-0.9,0-1.5-0.7-1.5-1.5v-54
	H72.7z M96.6,551.1c4.3,0,8.1-3.7,8.1-8.3c0-4.3-3.7-7.9-8.1-7.9H83.3v16.2C83.3,551.1,96.6,551.1,96.6,551.1z"/>
<path class="st2" d="M134.5,534.9H122c-0.9,0-1.5-0.7-1.5-1.5v-6.7c0-0.8,0.7-1.5,1.5-1.5h35.6c0.9,0,1.5,0.7,1.5,1.5v6.7
	c0,0.8-0.7,1.5-1.5,1.5h-12.5v45.7c0,0.8-0.7,1.5-1.5,1.5H136c-0.8,0-1.5-0.7-1.5-1.5V534.9z"/>
<path class="st2" d="M167.7,526.7c0-0.8,0.7-1.5,1.5-1.5h33.1c0.9,0,1.5,0.7,1.5,1.5v6.7c0,0.8-0.7,1.5-1.5,1.5h-24.1v13.3h20.1
	c0.8,0,1.5,0.7,1.5,1.5v6.8c0,0.9-0.7,1.5-1.5,1.5h-20.1v14.2h24.1c0.9,0,1.5,0.7,1.5,1.5v6.7c0,0.8-0.7,1.5-1.5,1.5h-33.1
	c-0.9,0-1.5-0.7-1.5-1.5V526.7z"/>
<path class="st2" d="M211.5,526.7c0-0.8,0.7-1.5,1.5-1.5h23.3c9.8,0,17.7,7.8,17.7,17.5c0,7.5-5,13.6-12,16.4l11.1,20.7
	c0.6,1.1,0,2.4-1.4,2.4h-8.5c-0.7,0-1.1-0.4-1.3-0.7l-10.8-21.6h-9v20.8c0,0.8-0.7,1.5-1.5,1.5h-7.5c-0.9,0-1.5-0.7-1.5-1.5v-54
	H211.5z M235.4,551.1c4.3,0,8.1-3.7,8.1-8.3c0-4.3-3.7-7.9-8.1-7.9h-13.3v16.2C222.1,551.1,235.4,551.1,235.4,551.1z"/>
</svg>
