<svg xmlns="http://www.w3.org/2000/svg" viewBox="0 0 92.6 181.2">
  <defs>
    <style>
      .cls-1 {
        fill: #00b3dc;
      }

      .cls-2 {
        fill: #129fc4;
      }

      .cls-3 {
        fill: #fff;
      }
    </style>
  </defs>
  <g id="Layer_2" data-name="Layer 2">
    <g id="Layer_1-2" data-name="Layer 1">
      <g id="tint">
        <g>
          <path class="cls-1" d="M0,94.1c0,26.2,22.8,41.4,46.3,42.6,22-1.2,46.3-16.7,46.3-42.9,0-35.7-35-56.2-46.3-93.8C34.6,37.6,0,58.4,0,94.1Z"/>
          <path class="cls-2" d="M.1,93.6c0,26.9,22.8,41.7,46.2,43,22-1.2,47.4-17.6,46.2-43.9C66,140.2,24.2,140.1.1,93.6Z"/>
        </g>
      </g>
      <line class="cls-3" x1="46.3" y1="181.2" x2="46.3" y2="177.17"/>
      <path class="cls-3" d="M26.21,81.91a.51.51,0,0,1,.52-.7h2.61a.63.63,0,0,1,.53.38l3,11.33h.1l4.5-11.68a.48.48,0,0,1,.48-.31h.53a.48.48,0,0,1,.49.31l4.53,11.68h.1l2.89-11.33a.56.56,0,0,1,.52-.38h2.62a.51.51,0,0,1,.52.7L44.74,101a.51.51,0,0,1-.52.38h-.45a.52.52,0,0,1-.49-.31L38.19,88.18h-.14L33,101a.48.48,0,0,1-.49.31H32.1a.57.57,0,0,1-.53-.38Z"/>
      <path class="cls-3" d="M51.71,81.73a.53.53,0,0,1,.52-.52h8.12a6.12,6.12,0,0,1,6.17,6.1A6.23,6.23,0,0,1,62.34,93l3.9,7.22a.54.54,0,0,1-.49.83h-3a.54.54,0,0,1-.45-.24L58.58,93.3H55.44v7.25a.53.53,0,0,1-.52.52H52.3a.51.51,0,0,1-.52-.52V81.73ZM60,90.23a2.88,2.88,0,0,0,2.82-2.89A2.82,2.82,0,0,0,60,84.59H55.4v5.64Z"/>
    </g>
  </g>
</svg>
