<svg xmlns="http://www.w3.org/2000/svg" viewBox="0 0 162.84 165.06">
  <defs>
    <style>
      .cls-1 {
        fill: #00b2db;
      }

      .cls-2 {
        fill: #06aade;
      }

      .cls-3 {
        fill: #0b9fc4;
      }

      .cls-4 {
        isolation: isolate;
      }

      .cls-5 {
        fill: #fff;
      }
    </style>
  </defs>
  <g id="Layer_2" data-name="Layer 2">
    <g id="Layer_1-2" data-name="Layer 1">
      <g>
        <path class="cls-1" d="M6.78,157.2c0,1.82-1.32,2.92-3.51,2.92H1.2v2.55H0v-8.4H3.27C5.46,154.27,6.78,155.37,6.78,157.2Zm-1.2,0c0-1.2-.81-1.89-2.34-1.89h-2v3.77h2C4.77,159.08,5.58,158.4,5.58,157.2Z"/>
        <path class="cls-1" d="M7.76,159.49a3.17,3.17,0,0,1,3.31-3.24,3.25,3.25,0,1,1,0,6.49A3.18,3.18,0,0,1,7.76,159.49Zm5.45,0a2.08,2.08,0,0,0-2.14-2.23,2.24,2.24,0,1,0,2.14,2.23Z"/>
        <path class="cls-1" d="M25.41,156.31,23,162.67H21.93l-1.83-4.83-1.86,4.83h-1.1l-2.37-6.36h1.09l1.85,5.06,1.92-5.06h1l1.88,5.08,1.9-5.08Z"/>
        <path class="cls-1" d="M32.12,159.87H27a2.16,2.16,0,0,0,2.31,1.86A2.36,2.36,0,0,0,31.1,161l.64.75a3.2,3.2,0,0,1-2.51,1,3.19,3.19,0,0,1-3.42-3.25A3.11,3.11,0,0,1,29,156.25a3.07,3.07,0,0,1,3.15,3.27C32.15,159.62,32.13,159.76,32.12,159.87ZM27,159H31A2.05,2.05,0,0,0,27,159Z"/>
        <path class="cls-1" d="M37.16,156.25v1.11H36.9a1.9,1.9,0,0,0-2,2.15v3.17H33.74v-6.36h1.11v1.07A2.41,2.41,0,0,1,37.16,156.25Z"/>
        <path class="cls-1" d="M44.24,159.87H39.08a2.16,2.16,0,0,0,2.31,1.86,2.36,2.36,0,0,0,1.83-.77l.64.75a3.47,3.47,0,0,1-5.93-2.22,3.11,3.11,0,0,1,3.19-3.24,3.06,3.06,0,0,1,3.14,3.27C44.26,159.62,44.25,159.76,44.24,159.87ZM39.08,159h4.08a2.05,2.05,0,0,0-4.08,0Z"/>
        <path class="cls-1" d="M51.86,153.77v8.9h-1.1v-1a2.69,2.69,0,0,1-2.27,1.08,3.25,3.25,0,0,1,0-6.49,2.69,2.69,0,0,1,2.22,1v-3.5Zm-1.14,5.72a2.14,2.14,0,1,0-2.13,2.24A2.09,2.09,0,0,0,50.72,159.49Z"/>
        <path class="cls-1" d="M63.86,159.49a3.1,3.1,0,0,1-3.21,3.25,2.68,2.68,0,0,1-2.27-1.08v1h-1.1v-8.9h1.15v3.5a2.68,2.68,0,0,1,2.22-1A3.08,3.08,0,0,1,63.86,159.49Zm-1.16,0a2.14,2.14,0,1,0-2.15,2.24A2.1,2.1,0,0,0,62.7,159.49Z"/>
        <path class="cls-1" d="M70.9,156.31l-3.08,7c-.56,1.34-1.29,1.76-2.26,1.76a2.42,2.42,0,0,1-1.64-.58l.5-.87a1.61,1.61,0,0,0,1.14.47c.55,0,.89-.25,1.21-1l.2-.45-2.81-6.34h1.2l2.22,5.08,2.2-5.08Z"/>
        <path class="cls-1" d="M77.05,155.31H74.17v-1h7v1H78.24v7.36H77.05Z"/>
        <path class="cls-1" d="M88.29,159v3.66H87.14v-3.53c0-1.25-.62-1.86-1.71-1.86a1.89,1.89,0,0,0-2,2.11v3.28H82.26v-8.9h1.15v3.44a2.76,2.76,0,0,1,2.24-1A2.46,2.46,0,0,1,88.29,159Z"/>
        <path class="cls-1" d="M96.19,159.87H91a2.14,2.14,0,0,0,2.3,1.86,2.37,2.37,0,0,0,1.84-.77l.63.75a3.46,3.46,0,0,1-5.92-2.22,3.11,3.11,0,0,1,3.19-3.24,3.06,3.06,0,0,1,3.14,3.27C96.21,159.62,96.2,159.76,96.19,159.87ZM91,159h4.08A2.05,2.05,0,0,0,91,159Z"/>
        <path class="cls-1" d="M100.52,158.47a4.26,4.26,0,0,1,4.45-4.3,4.14,4.14,0,0,1,3.19,1.31l-.78.76a3.08,3.08,0,0,0-2.36-1,3.23,3.23,0,1,0,0,6.45,3.12,3.12,0,0,0,2.36-1l.78.75a4.12,4.12,0,0,1-3.2,1.32A4.25,4.25,0,0,1,100.52,158.47Z"/>
        <path class="cls-1" d="M108.86,159.49a3.31,3.31,0,1,1,3.31,3.25A3.17,3.17,0,0,1,108.86,159.49Zm5.45,0a2.14,2.14,0,1,0-2.14,2.24A2.08,2.08,0,0,0,114.31,159.49Z"/>
        <path class="cls-1" d="M127.62,159v3.66h-1.15v-3.53c0-1.25-.6-1.86-1.64-1.86a1.85,1.85,0,0,0-1.91,2.11v3.28h-1.15v-3.53c0-1.25-.6-1.86-1.64-1.86a1.85,1.85,0,0,0-1.91,2.11v3.28h-1.15v-6.36h1.1v.95a2.59,2.59,0,0,1,2.2-1,2.36,2.36,0,0,1,2.21,1.17,2.85,2.85,0,0,1,2.44-1.17A2.44,2.44,0,0,1,127.62,159Z"/>
        <path class="cls-1" d="M140.31,159v3.66h-1.15v-3.53c0-1.25-.6-1.86-1.64-1.86a1.84,1.84,0,0,0-1.91,2.11v3.28h-1.15v-3.53c0-1.25-.6-1.86-1.65-1.86s-1.9.73-1.9,2.11v3.28h-1.15v-6.36h1.1v.95a2.56,2.56,0,0,1,2.19-1,2.35,2.35,0,0,1,2.21,1.17,2.87,2.87,0,0,1,2.45-1.17A2.44,2.44,0,0,1,140.31,159Z"/>
        <path class="cls-1" d="M141.89,159.49a3.31,3.31,0,1,1,3.31,3.25A3.16,3.16,0,0,1,141.89,159.49Zm5.44,0a2.14,2.14,0,1,0-4.28,0,2.14,2.14,0,1,0,4.28,0Z"/>
        <path class="cls-1" d="M156.13,159v3.66H155v-3.53c0-1.25-.63-1.86-1.72-1.86a1.88,1.88,0,0,0-2,2.11v3.28h-1.16v-6.36h1.11v1a2.72,2.72,0,0,1,2.29-1A2.46,2.46,0,0,1,156.13,159Z"/>
        <path class="cls-1" d="M157.46,162l.48-.91a4.05,4.05,0,0,0,2.23.66c1.07,0,1.52-.32,1.52-.86,0-1.43-4-.19-4-2.72,0-1.14,1-1.91,2.65-1.91a4.7,4.7,0,0,1,2.31.57l-.49.92a3.24,3.24,0,0,0-1.83-.51c-1,0-1.5.37-1.5.88,0,1.5,4,.27,4,2.75,0,1.15-1.06,1.88-2.75,1.88A4.62,4.62,0,0,1,157.46,162Z"/>
      </g>
      <g>
        <g id="tint">
          <g>
            <path class="cls-2" d="M34.66,93.19c0,26,22.64,41,46,42.21,21.83-1.23,45.94-16.54,45.94-42.49,0-35.4-34.77-55.67-45.94-92.91C69,37.24,34.66,57.8,34.66,93.19Z"/>
            <path class="cls-3" d="M35.75,92.72c0,26,21.55,40.27,44.86,41.49,21.83-1.22,44.81-16.49,44.81-42.43C99.08,138.85,59.72,138.8,35.75,92.72Z"/>
          </g>
        </g>
        <g class="cls-4">
          <path class="cls-5" d="M54.67,67.29a1.07,1.07,0,0,1,1.11-1.47h5.65a1.26,1.26,0,0,1,1.1.85l6.39,24.46h.25l9.77-25.25a1,1,0,0,1,1-.68h1.11a1,1,0,0,1,1,.68L92,91.13h.24l6.27-24.46a1.27,1.27,0,0,1,1.11-.85h5.65a1.06,1.06,0,0,1,1.1,1.47L94.72,108.48a1.17,1.17,0,0,1-1.1.86h-1a1,1,0,0,1-1-.68l-11-27.77h-.3L69.41,108.66a1,1,0,0,1-1,.68h-1a1.18,1.18,0,0,1-1.11-.86Z"/>
        </g>
      </g>
    </g>
  </g>
</svg>
