<svg xmlns="http://www.w3.org/2000/svg" viewBox="0 0 162.84 165.21">
  <defs>
    <style>
      .cls-1 {
        fill: #00b2db;
      }

      .cls-2 {
        fill: #0d9ec3;
      }

      .cls-3 {
        fill: #fff;
      }
    </style>
  </defs>
  <g id="Layer_2" data-name="Layer 2">
    <g id="Layer_1-2" data-name="Layer 1">
      <g id="tint">
        <g>
          <path class="cls-1" d="M34.61,94.1c0,26.2,22.8,41.4,46.3,42.6,22-1.2,46.3-16.7,46.3-42.9,0-35.7-35-56.2-46.3-93.8C69.21,37.6,34.61,58.4,34.61,94.1Z"/>
          <path class="cls-2" d="M34.71,93.6c0,26.9,22.8,41.7,46.2,43,22-1.2,47.4-17.6,46.2-43.9C100.61,140.2,58.81,140.1,34.71,93.6Z"/>
        </g>
      </g>
      <path class="cls-3" d="M60.82,81.91a.51.51,0,0,1,.52-.7H64a.63.63,0,0,1,.52.38l3,11.33h.11L72,81.24a.48.48,0,0,1,.49-.31h.52a.48.48,0,0,1,.49.31l4.53,11.68h.1l2.9-11.33a.55.55,0,0,1,.52-.38H84.2a.52.52,0,0,1,.53.7L79.36,101a.53.53,0,0,1-.52.38h-.46a.5.5,0,0,1-.48-.31L72.81,88.18h-.14l-5,12.86a.48.48,0,0,1-.49.31h-.45a.56.56,0,0,1-.52-.38Z"/>
      <path class="cls-3" d="M86.32,81.73a.54.54,0,0,1,.53-.52H95a6.12,6.12,0,0,1,6.16,6.1A6.23,6.23,0,0,1,97,93l3.91,7.22a.54.54,0,0,1-.49.83h-3a.54.54,0,0,1-.46-.24L93.19,93.3H90.05v7.25a.53.53,0,0,1-.52.52H86.92a.51.51,0,0,1-.53-.52V81.73Zm8.33,8.5a2.89,2.89,0,0,0,2.83-2.89,2.82,2.82,0,0,0-2.83-2.75H90v5.64Z"/>
      <g>
        <path class="cls-1" d="M6.78,157.34c0,1.82-1.32,2.92-3.51,2.92H1.2v2.55H0v-8.4H3.27C5.46,154.41,6.78,155.52,6.78,157.34Zm-1.2,0c0-1.2-.81-1.88-2.34-1.88h-2v3.76h2C4.77,159.22,5.58,158.54,5.58,157.34Z"/>
        <path class="cls-1" d="M7.76,159.63a3.17,3.17,0,0,1,3.31-3.24,3.25,3.25,0,1,1,0,6.49A3.18,3.18,0,0,1,7.76,159.63Zm5.45,0a2.08,2.08,0,0,0-2.14-2.23,2.24,2.24,0,1,0,2.14,2.23Z"/>
        <path class="cls-1" d="M25.41,156.45,23,162.81H21.93L20.1,158l-1.86,4.82h-1.1l-2.37-6.36h1.09l1.85,5.06,1.92-5.06h1l1.88,5.09,1.9-5.09Z"/>
        <path class="cls-1" d="M32.12,160H27a2.16,2.16,0,0,0,2.31,1.86,2.36,2.36,0,0,0,1.83-.77l.64.75a3.2,3.2,0,0,1-2.51,1,3.19,3.19,0,0,1-3.42-3.25A3.12,3.12,0,0,1,29,156.39a3.07,3.07,0,0,1,3.15,3.27C32.15,159.76,32.13,159.9,32.12,160ZM27,159.18H31a2.05,2.05,0,0,0-4.08,0Z"/>
        <path class="cls-1" d="M37.16,156.39v1.12a1.18,1.18,0,0,0-.26,0,1.9,1.9,0,0,0-2,2.15v3.17H33.74v-6.36h1.11v1.07A2.41,2.41,0,0,1,37.16,156.39Z"/>
        <path class="cls-1" d="M44.24,160H39.08a2.16,2.16,0,0,0,2.31,1.86,2.36,2.36,0,0,0,1.83-.77l.64.75a3.47,3.47,0,0,1-5.93-2.22,3.12,3.12,0,0,1,3.19-3.24,3.06,3.06,0,0,1,3.14,3.27C44.26,159.76,44.25,159.9,44.24,160Zm-5.16-.83h4.08a2.05,2.05,0,0,0-4.08,0Z"/>
        <path class="cls-1" d="M51.86,153.91v8.9h-1.1v-1a2.69,2.69,0,0,1-2.27,1.08,3.25,3.25,0,0,1,0-6.49,2.72,2.72,0,0,1,2.22,1v-3.5Zm-1.14,5.72a2.14,2.14,0,1,0-2.13,2.24A2.09,2.09,0,0,0,50.72,159.63Z"/>
        <path class="cls-1" d="M63.86,159.63a3.1,3.1,0,0,1-3.21,3.25,2.68,2.68,0,0,1-2.27-1.08v1h-1.1v-8.9h1.15v3.5a2.71,2.71,0,0,1,2.22-1A3.09,3.09,0,0,1,63.86,159.63Zm-1.16,0a2.14,2.14,0,1,0-2.15,2.24A2.1,2.1,0,0,0,62.7,159.63Z"/>
        <path class="cls-1" d="M70.9,156.45l-3.08,7c-.56,1.35-1.29,1.77-2.26,1.77a2.42,2.42,0,0,1-1.64-.59l.5-.87a1.61,1.61,0,0,0,1.14.47c.55,0,.89-.25,1.21-1l.2-.44-2.81-6.35h1.2l2.22,5.09,2.2-5.09Z"/>
        <path class="cls-1" d="M77.05,155.46H74.17v-1.05h7v1.05H78.24v7.35H77.05Z"/>
        <path class="cls-1" d="M88.29,159.15v3.66H87.14v-3.53c0-1.25-.62-1.86-1.71-1.86a1.89,1.89,0,0,0-2,2.11v3.28H82.26v-8.9h1.15v3.44a2.76,2.76,0,0,1,2.24-1A2.46,2.46,0,0,1,88.29,159.15Z"/>
        <path class="cls-1" d="M96.19,160H91a2.14,2.14,0,0,0,2.3,1.86,2.37,2.37,0,0,0,1.84-.77l.63.75a3.46,3.46,0,0,1-5.92-2.22,3.12,3.12,0,0,1,3.19-3.24,3.06,3.06,0,0,1,3.14,3.27C96.21,159.76,96.2,159.9,96.19,160ZM91,159.18h4.08a2.05,2.05,0,0,0-4.08,0Z"/>
        <path class="cls-1" d="M100.52,158.61a4.25,4.25,0,0,1,4.45-4.29,4.14,4.14,0,0,1,3.19,1.3l-.78.76a3.08,3.08,0,0,0-2.36-1,3.23,3.23,0,1,0,0,6.46,3.13,3.13,0,0,0,2.36-1l.78.75a4.12,4.12,0,0,1-3.2,1.32A4.25,4.25,0,0,1,100.52,158.61Z"/>
        <path class="cls-1" d="M108.86,159.63a3.31,3.31,0,1,1,3.31,3.25A3.17,3.17,0,0,1,108.86,159.63Zm5.45,0a2.14,2.14,0,1,0-2.14,2.24A2.08,2.08,0,0,0,114.31,159.63Z"/>
        <path class="cls-1" d="M127.62,159.15v3.66h-1.15v-3.53c0-1.25-.6-1.86-1.64-1.86a1.85,1.85,0,0,0-1.91,2.11v3.28h-1.15v-3.53c0-1.25-.6-1.86-1.64-1.86a1.85,1.85,0,0,0-1.91,2.11v3.28h-1.15v-6.36h1.1v1a2.59,2.59,0,0,1,2.2-1,2.35,2.35,0,0,1,2.21,1.18,2.85,2.85,0,0,1,2.44-1.18A2.44,2.44,0,0,1,127.62,159.15Z"/>
        <path class="cls-1" d="M140.31,159.15v3.66h-1.15v-3.53c0-1.25-.6-1.86-1.64-1.86a1.84,1.84,0,0,0-1.91,2.11v3.28h-1.15v-3.53c0-1.25-.6-1.86-1.65-1.86s-1.9.73-1.9,2.11v3.28h-1.15v-6.36h1.1v1a2.56,2.56,0,0,1,2.19-1,2.34,2.34,0,0,1,2.21,1.18,2.87,2.87,0,0,1,2.45-1.18A2.44,2.44,0,0,1,140.31,159.15Z"/>
        <path class="cls-1" d="M141.89,159.63a3.31,3.31,0,1,1,3.31,3.25A3.16,3.16,0,0,1,141.89,159.63Zm5.44,0a2.14,2.14,0,1,0-4.28,0,2.14,2.14,0,1,0,4.28,0Z"/>
        <path class="cls-1" d="M156.13,159.15v3.66H155v-3.53c0-1.25-.63-1.86-1.72-1.86a1.88,1.88,0,0,0-2,2.11v3.28h-1.16v-6.36h1.11v1a2.72,2.72,0,0,1,2.29-1A2.46,2.46,0,0,1,156.13,159.15Z"/>
        <path class="cls-1" d="M157.46,162.14l.48-.92a4.05,4.05,0,0,0,2.23.66c1.07,0,1.52-.32,1.52-.86,0-1.43-4-.19-4-2.72,0-1.14,1-1.91,2.65-1.91a4.59,4.59,0,0,1,2.31.58l-.49.91a3.32,3.32,0,0,0-1.83-.51c-1,0-1.5.38-1.5.88,0,1.5,4,.28,4,2.75,0,1.15-1.06,1.88-2.75,1.88A4.62,4.62,0,0,1,157.46,162.14Z"/>
      </g>
    </g>
  </g>
</svg>
